<svg width="204" height="26" viewBox="0 0 204 26" fill="none" xmlns="http://www.w3.org/2000/svg">
<path d="M22.8906 18.4062C22.8906 19.2083 22.7865 19.9323 22.5781 20.5781C22.3802 21.2135 22.1146 21.776 21.7812 22.2656C21.4479 22.7552 21.0573 23.1719 20.6094 23.5156C20.1615 23.8594 19.6979 24.1406 19.2188 24.3594C18.7396 24.5781 18.25 24.7396 17.75 24.8438C17.2604 24.9479 16.7969 25 16.3594 25H0.6875V20.9375H16.3594C17.1406 20.9375 17.7448 20.7083 18.1719 20.25C18.6094 19.7917 18.8281 19.1771 18.8281 18.4062C18.8281 18.0312 18.7708 17.6875 18.6562 17.375C18.5417 17.0625 18.375 16.7917 18.1562 16.5625C17.9479 16.3333 17.6875 16.1562 17.375 16.0312C17.0729 15.9062 16.7344 15.8438 16.3594 15.8438H7.01562C6.35938 15.8438 5.65104 15.7292 4.89062 15.5C4.13021 15.2604 3.42188 14.8802 2.76562 14.3594C2.11979 13.8385 1.57812 13.1562 1.14062 12.3125C0.713542 11.4688 0.5 10.4375 0.5 9.21875C0.5 8 0.713542 6.97396 1.14062 6.14062C1.57812 5.29688 2.11979 4.61458 2.76562 4.09375C3.42188 3.5625 4.13021 3.18229 4.89062 2.95312C5.65104 2.71354 6.35938 2.59375 7.01562 2.59375H20.8438V6.65625H7.01562C6.24479 6.65625 5.64062 6.89062 5.20312 7.35938C4.77604 7.82812 4.5625 8.44792 4.5625 9.21875C4.5625 10 4.77604 10.6198 5.20312 11.0781C5.64062 11.526 6.24479 11.75 7.01562 11.75H16.3594H16.3906C16.8281 11.7604 17.2917 11.8229 17.7812 11.9375C18.2708 12.0417 18.7552 12.2083 19.2344 12.4375C19.724 12.6667 20.1875 12.9583 20.625 13.3125C21.0625 13.6562 21.4479 14.0729 21.7812 14.5625C22.125 15.0521 22.3958 15.6146 22.5938 16.25C22.7917 16.8854 22.8906 17.6042 22.8906 18.4062ZM52.3438 25H48.25V11.6562L41.0469 24.3281C40.8698 24.651 40.6198 24.8958 40.2969 25.0625C39.9844 25.2292 39.6458 25.3125 39.2812 25.3125C38.9271 25.3125 38.5938 25.2292 38.2812 25.0625C37.9792 24.8958 37.7396 24.651 37.5625 24.3281L30.3281 11.6562V25H26.2656V4.32812C26.2656 3.85938 26.401 3.44271 26.6719 3.07812C26.9531 2.71354 27.3177 2.46875 27.7656 2.34375C27.9844 2.29167 28.2031 2.27604 28.4219 2.29688C28.6406 2.30729 28.849 2.35417 29.0469 2.4375C29.2552 2.51042 29.4427 2.61979 29.6094 2.76562C29.776 2.90104 29.9167 3.06771 30.0312 3.26562L39.2812 19.3438L48.5312 3.26562C48.7708 2.86979 49.099 2.58854 49.5156 2.42188C49.9427 2.25521 50.3854 2.22917 50.8438 2.34375C51.2812 2.46875 51.6406 2.71354 51.9219 3.07812C52.2031 3.44271 52.3438 3.85938 52.3438 4.32812V25ZM83.1562 25H79.0625V11.6562L71.8594 24.3281C71.6823 24.651 71.4323 24.8958 71.1094 25.0625C70.7969 25.2292 70.4583 25.3125 70.0938 25.3125C69.7396 25.3125 69.4062 25.2292 69.0938 25.0625C68.7917 24.8958 68.5521 24.651 68.375 24.3281L61.1406 11.6562V25H57.0781V4.32812C57.0781 3.85938 57.2135 3.44271 57.4844 3.07812C57.7656 2.71354 58.1302 2.46875 58.5781 2.34375C58.7969 2.29167 59.0156 2.27604 59.2344 2.29688C59.4531 2.30729 59.6615 2.35417 59.8594 2.4375C60.0677 2.51042 60.2552 2.61979 60.4219 2.76562C60.5885 2.90104 60.7292 3.06771 60.8438 3.26562L70.0938 19.3438L79.3438 3.26562C79.5833 2.86979 79.9115 2.58854 80.3281 2.42188C80.7552 2.25521 81.1979 2.22917 81.6562 2.34375C82.0938 2.46875 82.4531 2.71354 82.7344 3.07812C83.0156 3.44271 83.1562 3.85938 83.1562 4.32812V25ZM119.828 18.4062C119.828 19.2083 119.724 19.9323 119.516 20.5781C119.318 21.2135 119.052 21.776 118.719 22.2656C118.385 22.7552 117.995 23.1719 117.547 23.5156C117.099 23.8594 116.635 24.1406 116.156 24.3594C115.677 24.5781 115.188 24.7396 114.688 24.8438C114.198 24.9479 113.734 25 113.297 25H97.625V20.9375H113.297C114.078 20.9375 114.682 20.7083 115.109 20.25C115.547 19.7917 115.766 19.1771 115.766 18.4062C115.766 18.0312 115.708 17.6875 115.594 17.375C115.479 17.0625 115.312 16.7917 115.094 16.5625C114.885 16.3333 114.625 16.1562 114.312 16.0312C114.01 15.9062 113.672 15.8438 113.297 15.8438H103.953C103.297 15.8438 102.589 15.7292 101.828 15.5C101.068 15.2604 100.359 14.8802 99.7031 14.3594C99.0573 13.8385 98.5156 13.1562 98.0781 12.3125C97.651 11.4688 97.4375 10.4375 97.4375 9.21875C97.4375 8 97.651 6.97396 98.0781 6.14062C98.5156 5.29688 99.0573 4.61458 99.7031 4.09375C100.359 3.5625 101.068 3.18229 101.828 2.95312C102.589 2.71354 103.297 2.59375 103.953 2.59375H117.781V6.65625H103.953C103.182 6.65625 102.578 6.89062 102.141 7.35938C101.714 7.82812 101.5 8.44792 101.5 9.21875C101.5 10 101.714 10.6198 102.141 11.0781C102.578 11.526 103.182 11.75 103.953 11.75H113.297H113.328C113.766 11.7604 114.229 11.8229 114.719 11.9375C115.208 12.0417 115.693 12.2083 116.172 12.4375C116.661 12.6667 117.125 12.9583 117.562 13.3125C118 13.6562 118.385 14.0729 118.719 14.5625C119.062 15.0521 119.333 15.6146 119.531 16.25C119.729 16.8854 119.828 17.6042 119.828 18.4062ZM141.531 25H137.469V13.7969C137.469 13.2656 137.333 12.8646 137.062 12.5938C136.792 12.3125 136.385 12.1719 135.844 12.1719H128.516V8.10938H135.844C136.229 8.10938 136.635 8.15625 137.062 8.25C137.49 8.33333 137.911 8.46875 138.328 8.65625C138.755 8.84375 139.161 9.08854 139.547 9.39062C139.932 9.68229 140.271 10.0417 140.562 10.4688C140.854 10.8854 141.089 11.3698 141.266 11.9219C141.443 12.474 141.531 13.099 141.531 13.7969V25ZM126.875 25H122.812V0.96875H126.875V25ZM162.688 19.4062C162.688 19.9688 162.589 20.5781 162.391 21.2344C162.193 21.8802 161.87 22.4844 161.422 23.0469C160.984 23.599 160.406 24.0625 159.688 24.4375C158.979 24.8125 158.115 25 157.094 25H149.766C149.203 25 148.594 24.901 147.938 24.7031C147.292 24.5052 146.688 24.1875 146.125 23.75C145.573 23.3021 145.109 22.724 144.734 22.0156C144.359 21.2969 144.172 20.4271 144.172 19.4062C144.172 18.8438 144.271 18.2344 144.469 17.5781C144.667 16.9219 144.984 16.3177 145.422 15.7656C145.87 15.2031 146.448 14.7344 147.156 14.3594C147.875 13.9844 148.745 13.7969 149.766 13.7969H157.094V17.6719H149.766C149.214 17.6719 148.786 17.8438 148.484 18.1875C148.182 18.5208 148.031 18.9375 148.031 19.4375C148.031 19.9688 148.203 20.3854 148.547 20.6875C148.901 20.9792 149.318 21.125 149.797 21.125H157.094C157.646 21.125 158.073 20.9583 158.375 20.625C158.677 20.2917 158.828 19.875 158.828 19.375V13.7031C158.828 13.1719 158.661 12.75 158.328 12.4375C158.005 12.125 157.594 11.9688 157.094 11.9688H148.172V8.10938H157.094C157.656 8.10938 158.26 8.20833 158.906 8.40625C159.562 8.60417 160.167 8.92708 160.719 9.375C161.281 9.8125 161.75 10.3906 162.125 11.1094C162.5 11.8177 162.688 12.6823 162.688 13.7031V19.4062ZM180.938 12.1719H171.797C171.245 12.1719 170.828 12.3125 170.547 12.5938C170.266 12.8646 170.125 13.2656 170.125 13.7969V25H166.062V13.7969C166.062 13.099 166.151 12.474 166.328 11.9219C166.505 11.3698 166.74 10.8854 167.031 10.4688C167.333 10.0417 167.677 9.68229 168.062 9.39062C168.448 9.08854 168.849 8.84375 169.266 8.65625C169.693 8.46875 170.12 8.33333 170.547 8.25C170.984 8.15625 171.391 8.10938 171.766 8.10938H180.938V12.1719ZM203.469 25H197.609L189.422 17.0938C188.964 16.6771 188.75 16.1562 188.781 15.5312C188.802 15.2396 188.875 14.9688 189 14.7188C189.135 14.4583 189.318 14.2396 189.547 14.0625L196.969 8.07812H203.469L193.906 15.7812L203.469 25ZM187.75 25H183.688V0.96875H187.75V25Z" fill="black"/>
</svg>
