<svg width="605" height="135" viewBox="0 0 605 135" fill="none" xmlns="http://www.w3.org/2000/svg">
<g filter="url(#filter0_d_1_54)">
<path d="M63.8384 43.6568C63.8384 45.7665 63.5644 47.6707 63.0164 49.3694C62.4958 51.0407 61.7972 52.5202 60.9204 53.8079C60.0437 55.0956 59.0162 56.1916 57.8381 57.0957C56.66 57.9999 55.4407 58.7396 54.1804 59.315C52.9201 59.8904 51.6323 60.315 50.3172 60.589C49.0295 60.863 47.8103 61 46.6595 61H5.43855V50.3146H46.6595C48.7144 50.3146 50.3035 49.7118 51.4269 48.5063C52.5776 47.3008 53.153 45.6843 53.153 43.6568C53.153 42.6704 53.0023 41.7663 52.7009 40.9443C52.3995 40.1224 51.9611 39.41 51.3858 38.8072C50.8378 38.2045 50.1528 37.7387 49.3309 37.4099C48.5363 37.0811 47.6459 36.9168 46.6595 36.9168H22.0831C20.357 36.9168 18.4939 36.6154 16.4938 36.0126C14.4937 35.3824 12.6306 34.3824 10.9045 33.0125C9.20584 31.6426 7.78112 29.848 6.63038 27.6287C5.50705 25.4094 4.94538 22.697 4.94538 19.4913C4.94538 16.2857 5.50705 13.587 6.63038 11.3951C7.78112 9.17582 9.20584 7.38122 10.9045 6.0113C12.6306 4.61398 14.4937 3.61393 16.4938 3.01117C18.4939 2.381 20.357 2.06592 22.0831 2.06592H58.4546V12.7513H22.0831C20.0556 12.7513 18.4665 13.3678 17.3158 14.6007C16.1924 15.8336 15.6308 17.4639 15.6308 19.4913C15.6308 21.5462 16.1924 23.1764 17.3158 24.382C18.4665 25.5601 20.0556 26.1492 22.0831 26.1492H46.6595H46.7417C47.8925 26.1766 49.1117 26.341 50.3994 26.6423C51.6871 26.9163 52.9612 27.3547 54.2215 27.9575C55.5092 28.5602 56.7285 29.3274 57.8792 30.2589C59.0299 31.1631 60.0437 32.259 60.9204 33.5467C61.8246 34.8345 62.5369 36.314 63.0575 37.9853C63.5781 39.6566 63.8384 41.5471 63.8384 43.6568ZM141.308 61H130.54V25.9026L111.594 59.2328C111.128 60.0822 110.471 60.726 109.621 61.1644C108.799 61.6028 107.909 61.822 106.95 61.822C106.018 61.822 105.142 61.6028 104.32 61.1644C103.525 60.726 102.895 60.0822 102.429 59.2328L83.4009 25.9026V61H72.7155V6.62776C72.7155 5.39483 73.0716 4.29889 73.784 3.33995C74.5238 2.381 75.4827 1.73714 76.6608 1.40836C77.2362 1.27136 77.8116 1.23027 78.3869 1.28506C78.9623 1.31246 79.5103 1.43575 80.0309 1.65494C80.5788 1.84673 81.072 2.13441 81.5104 2.51799C81.9487 2.87417 82.3186 3.31255 82.62 3.83312L106.95 46.1226L131.28 3.83312C131.91 2.79198 132.773 2.05222 133.869 1.61384C134.992 1.17547 136.157 1.10697 137.362 1.40836C138.513 1.73714 139.458 2.381 140.198 3.33995C140.938 4.29889 141.308 5.39483 141.308 6.62776V61ZM222.352 61H211.585V25.9026L192.639 59.2328C192.173 60.0822 191.515 60.726 190.666 61.1644C189.844 61.6028 188.953 61.822 187.994 61.822C187.063 61.822 186.186 61.6028 185.364 61.1644C184.57 60.726 183.94 60.0822 183.474 59.2328L164.446 25.9026V61H153.76V6.62776C153.76 5.39483 154.116 4.29889 154.829 3.33995C155.568 2.381 156.527 1.73714 157.705 1.40836C158.281 1.27136 158.856 1.23027 159.432 1.28506C160.007 1.31246 160.555 1.43575 161.075 1.65494C161.623 1.84673 162.117 2.13441 162.555 2.51799C162.993 2.87417 163.363 3.31255 163.665 3.83312L187.994 46.1226L212.324 3.83312C212.954 2.79198 213.818 2.05222 214.913 1.61384C216.037 1.17547 217.201 1.10697 218.407 1.40836C219.557 1.73714 220.503 2.381 221.243 3.33995C221.982 4.29889 222.352 5.39483 222.352 6.62776V61ZM318.808 43.6568C318.808 45.7665 318.534 47.6707 317.986 49.3694C317.466 51.0407 316.767 52.5202 315.89 53.8079C315.014 55.0956 313.986 56.1916 312.808 57.0957C311.63 57.9999 310.411 58.7396 309.15 59.315C307.89 59.8904 306.602 60.315 305.287 60.589C304 60.863 302.78 61 301.63 61H260.409V50.3146H301.63C303.684 50.3146 305.274 49.7118 306.397 48.5063C307.548 47.3008 308.123 45.6843 308.123 43.6568C308.123 42.6704 307.972 41.7663 307.671 40.9443C307.37 40.1224 306.931 39.41 306.356 38.8072C305.808 38.2045 305.123 37.7387 304.301 37.4099C303.506 37.0811 302.616 36.9168 301.63 36.9168H277.053C275.327 36.9168 273.464 36.6154 271.464 36.0126C269.464 35.3824 267.601 34.3824 265.875 33.0125C264.176 31.6426 262.751 29.848 261.6 27.6287C260.477 25.4094 259.915 22.697 259.915 19.4913C259.915 16.2857 260.477 13.587 261.6 11.3951C262.751 9.17582 264.176 7.38122 265.875 6.0113C267.601 4.61398 269.464 3.61393 271.464 3.01117C273.464 2.381 275.327 2.06592 277.053 2.06592H313.425V12.7513H277.053C275.026 12.7513 273.437 13.3678 272.286 14.6007C271.162 15.8336 270.601 17.4639 270.601 19.4913C270.601 21.5462 271.162 23.1764 272.286 24.382C273.437 25.5601 275.026 26.1492 277.053 26.1492H301.63H301.712C302.863 26.1766 304.082 26.341 305.369 26.6423C306.657 26.9163 307.931 27.3547 309.192 27.9575C310.479 28.5602 311.699 29.3274 312.849 30.2589C314 31.1631 315.014 32.259 315.89 33.5467C316.795 34.8345 317.507 36.314 318.028 37.9853C318.548 39.6566 318.808 41.5471 318.808 43.6568ZM338.453 26.1492H375.975V2.06592H386.661V61H375.975V36.9168H338.453V61H327.768V2.06592H338.453V26.1492ZM457.02 61H446.335V46.5336H408.771V61H398.086V31.533C398.086 27.2314 398.826 23.2723 400.305 19.6557C401.785 16.0391 403.84 12.9294 406.47 10.3266C409.1 7.7237 412.21 5.69621 415.799 4.2441C419.388 2.79198 423.306 2.06592 427.553 2.06592H451.636C452.376 2.06592 453.075 2.20291 453.732 2.4769C454.39 2.75088 454.965 3.13446 455.458 3.62763C455.951 4.1208 456.335 4.69617 456.609 5.35373C456.883 6.0113 457.02 6.70996 457.02 7.44972V61ZM408.771 35.8482H446.335V12.7513H427.553C427.224 12.7513 426.525 12.8061 425.457 12.9157C424.416 12.9979 423.197 13.2308 421.799 13.6144C420.429 13.9979 418.977 14.587 417.443 15.3816C415.909 16.1761 414.498 17.2721 413.21 18.6694C411.922 20.0667 410.854 21.8202 410.004 23.9299C409.182 26.0122 408.771 28.5465 408.771 31.533V35.8482ZM528.366 21.875C528.366 24.3135 528.064 26.4916 527.461 28.4095C526.859 30.3274 526.037 32.0261 524.996 33.5056C523.982 34.9578 522.804 36.2044 521.461 37.2455C520.119 38.2867 518.708 39.1497 517.228 39.8347C515.776 40.4923 514.296 40.9717 512.789 41.2731C511.31 41.5745 509.913 41.7252 508.598 41.7252L530.914 61H514.392L492.117 41.7252H484.432V31.0398H508.598C509.94 30.9302 511.159 30.6562 512.255 30.2178C513.379 29.7521 514.338 29.1356 515.132 28.3684C515.954 27.6013 516.584 26.6834 517.023 25.6149C517.461 24.519 517.68 23.2723 517.68 21.875V15.135C517.68 14.5322 517.598 14.0801 517.434 13.7788C517.297 13.45 517.105 13.2171 516.858 13.0801C516.639 12.9157 516.392 12.8198 516.118 12.7924C515.872 12.765 515.639 12.7513 515.42 12.7513H480.158V61H469.473V7.44972C469.473 6.70996 469.61 6.0113 469.884 5.35373C470.157 4.69617 470.527 4.1208 470.993 3.62763C471.486 3.13446 472.062 2.75088 472.719 2.4769C473.377 2.20291 474.089 2.06592 474.856 2.06592H515.42C517.803 2.06592 519.817 2.50429 521.461 3.38104C523.105 4.2304 524.434 5.31264 525.448 6.62776C526.489 7.91549 527.228 9.31281 527.667 10.8197C528.133 12.3266 528.366 13.7377 528.366 15.0528V21.875ZM600.862 61H585.697L561.655 36.9168H554.134V26.1492H561.655L585.697 2.06592H600.862L570.573 31.533L600.862 61ZM549.86 61H539.174V2.06592H549.86V61ZM65.0302 126H54.3448V111.534H16.7815V126H6.09611V96.533C6.09611 92.2314 6.83587 88.2723 8.31539 84.6557C9.7949 81.0391 11.8498 77.9294 14.48 75.3266C17.1103 72.7237 20.22 70.6962 23.8092 69.2441C27.3984 67.792 31.3164 67.0659 35.5632 67.0659H59.6464C60.3862 67.0659 61.0848 67.2029 61.7424 67.4769C62.3999 67.7509 62.9753 68.1345 63.4685 68.6276C63.9617 69.1208 64.3452 69.6962 64.6192 70.3537C64.8932 71.0113 65.0302 71.71 65.0302 72.4497V126ZM16.7815 100.848H54.3448V77.7513H35.5632C35.2344 77.7513 34.5357 77.8061 33.4672 77.9157C32.426 77.9979 31.2068 78.2308 29.8095 78.6144C28.4396 78.9979 26.9874 79.587 25.4531 80.3816C23.9188 81.1761 22.5078 82.2721 21.2201 83.6694C19.9323 85.0667 18.8638 86.8202 18.0144 88.9299C17.1925 91.0122 16.7815 93.5465 16.7815 96.533V100.848ZM135.636 120.616C135.636 121.383 135.499 122.096 135.225 122.753C134.951 123.411 134.567 123.986 134.074 124.479C133.609 124.945 133.047 125.315 132.389 125.589C131.732 125.863 131.019 126 130.252 126H91.7026C90.7163 126 89.6477 125.89 88.497 125.671C87.3736 125.425 86.2503 125.055 85.127 124.562C84.031 124.068 82.9762 123.438 81.9624 122.671C80.9487 121.877 80.0446 120.931 79.25 119.835C78.4828 118.712 77.8664 117.424 77.4006 115.972C76.9348 114.493 76.7019 112.835 76.7019 110.999V82.0666C76.7019 81.0802 76.8115 80.0254 77.0307 78.9021C77.2773 77.7513 77.6472 76.628 78.1404 75.532C78.6335 74.4087 79.2774 73.3402 80.072 72.3264C80.8665 71.3127 81.8118 70.4222 82.9077 69.6551C84.031 68.8605 85.3188 68.2304 86.7709 67.7646C88.223 67.2988 89.8669 67.0659 91.7026 67.0659H135.143V77.7513H91.7026C90.3053 77.7513 89.2367 78.1212 88.497 78.861C87.7572 79.6007 87.3873 80.6967 87.3873 82.1488V110.999C87.3873 112.369 87.7572 113.438 88.497 114.205C89.2641 114.945 90.3327 115.315 91.7026 115.315H124.951V101.917H96.511V91.1492H130.252C131.019 91.1492 131.732 91.2999 132.389 91.6012C133.047 91.8752 133.609 92.2588 134.074 92.752C134.567 93.2451 134.951 93.8205 135.225 94.4781C135.499 95.1082 135.636 95.7932 135.636 96.533V120.616ZM195.228 101.917H161.486V91.1492H195.228V101.917ZM200.036 126H161.486C160.007 126 158.39 125.74 156.637 125.219C154.883 124.699 153.253 123.849 151.746 122.671C150.267 121.466 149.02 119.918 148.006 118.027C147.02 116.109 146.527 113.767 146.527 110.999V72.4497C146.527 71.71 146.664 71.0113 146.938 70.3537C147.212 69.6962 147.582 69.1208 148.048 68.6276C148.541 68.1345 149.116 67.7509 149.774 67.4769C150.431 67.2029 151.144 67.0659 151.911 67.0659H200.036V77.7513H157.212V110.999C157.212 112.397 157.582 113.465 158.322 114.205C159.062 114.945 160.144 115.315 161.569 115.315H200.036V126ZM269.286 121.438C269.286 122.205 269.135 122.918 268.834 123.575C268.56 124.233 268.176 124.808 267.683 125.301C267.217 125.767 266.655 126.137 265.998 126.411C265.34 126.685 264.642 126.822 263.902 126.822C263.244 126.822 262.573 126.699 261.888 126.452C261.231 126.205 260.641 125.808 260.121 125.26L221.078 84.4913V126H210.393V71.6278C210.393 70.5318 210.694 69.5455 211.297 68.6687C211.927 67.7646 212.722 67.0933 213.681 66.6549C214.694 66.244 215.735 66.1481 216.804 66.3673C217.872 66.559 218.79 67.0522 219.557 67.8468L258.6 108.575V67.0659H269.286V121.438ZM334.508 126H295.958C294.972 126 293.903 125.89 292.752 125.671C291.629 125.425 290.506 125.055 289.382 124.562C288.287 124.068 287.232 123.438 286.218 122.671C285.204 121.877 284.3 120.931 283.505 119.835C282.738 118.712 282.122 117.424 281.656 115.972C281.19 114.493 280.957 112.835 280.957 110.999V82.0666C280.957 81.0802 281.067 80.0254 281.286 78.9021C281.533 77.7513 281.903 76.628 282.396 75.532C282.889 74.4087 283.533 73.3402 284.327 72.3264C285.122 71.3127 286.067 70.4222 287.163 69.6551C288.287 68.8605 289.574 68.2304 291.026 67.7646C292.478 67.2988 294.122 67.0659 295.958 67.0659H334.508V77.7513H295.958C294.561 77.7513 293.492 78.1212 292.752 78.861C292.013 79.6007 291.643 80.6967 291.643 82.1488V110.999C291.643 112.369 292.013 113.438 292.752 114.205C293.52 114.945 294.588 115.315 295.958 115.315H334.508V126ZM400.757 86.7928C400.757 89.2313 400.442 91.4094 399.812 93.3273C399.209 95.2452 398.401 96.9439 397.387 98.4235C396.373 99.8756 395.182 101.122 393.812 102.163C392.469 103.204 391.072 104.068 389.62 104.752C388.168 105.41 386.688 105.89 385.181 106.191C383.702 106.492 382.304 106.643 380.989 106.643H376.674V126H365.906V106.643H361.632C360.317 106.643 358.906 106.492 357.399 106.191C355.92 105.89 354.44 105.41 352.961 104.752C351.508 104.068 350.111 103.204 348.769 102.163C347.426 101.122 346.234 99.8756 345.193 98.4235C344.179 96.9439 343.357 95.2452 342.727 93.3273C342.124 91.382 341.823 89.2039 341.823 86.7928V67.0659H352.508V86.7928C352.508 88.1901 352.728 89.4505 353.166 90.5738C353.604 91.6697 354.221 92.615 355.015 93.4095C355.81 94.2041 356.769 94.8206 357.892 95.2589C359.043 95.6699 360.317 95.8754 361.714 95.8754H380.989C382.003 95.711 383.044 95.5055 384.113 95.2589C385.181 94.9849 386.154 94.5329 387.031 93.9027C387.907 93.2725 388.633 92.3958 389.209 91.2725C389.784 90.1491 390.072 88.6559 390.072 86.7928V67.0659H400.757V86.7928Z" fill="white"/>
</g>
<defs>
<filter id="filter0_d_1_54" x="0.945377" y="0.956282" width="603.916" height="133.866" filterUnits="userSpaceOnUse" color-interpolation-filters="sRGB">
<feFlood flood-opacity="0" result="BackgroundImageFix"/>
<feColorMatrix in="SourceAlpha" type="matrix" values="0 0 0 0 0 0 0 0 0 0 0 0 0 0 0 0 0 0 127 0" result="hardAlpha"/>
<feOffset dy="4"/>
<feGaussianBlur stdDeviation="2"/>
<feComposite in2="hardAlpha" operator="out"/>
<feColorMatrix type="matrix" values="0 0 0 0 0 0 0 0 0 0 0 0 0 0 0 0 0 0 0.25 0"/>
<feBlend mode="normal" in2="BackgroundImageFix" result="effect1_dropShadow_1_54"/>
<feBlend mode="normal" in="SourceGraphic" in2="effect1_dropShadow_1_54" result="shape"/>
</filter>
</defs>
</svg>
