<svg width="127" height="16" viewBox="0 0 127 16" fill="none" xmlns="http://www.w3.org/2000/svg">
<path d="M14.418 11.3237C14.418 11.825 14.3529 12.2775 14.2227 12.6812C14.099 13.0783 13.9329 13.4299 13.7246 13.7358C13.5163 14.0418 13.2721 14.3022 12.9922 14.5171C12.7122 14.7319 12.4225 14.9077 12.123 15.0444C11.8236 15.1812 11.5176 15.2821 11.2051 15.3472C10.8991 15.4123 10.6094 15.4448 10.3359 15.4448H0.541016V12.9058H10.3359C10.8242 12.9058 11.2018 12.7625 11.4688 12.4761C11.7422 12.1896 11.8789 11.8055 11.8789 11.3237C11.8789 11.0894 11.8431 10.8745 11.7715 10.6792C11.6999 10.4839 11.5957 10.3146 11.459 10.1714C11.3288 10.0282 11.166 9.91748 10.9707 9.83936C10.7819 9.76123 10.5703 9.72217 10.3359 9.72217H4.49609C4.08594 9.72217 3.64323 9.65055 3.16797 9.50732C2.69271 9.35758 2.25 9.11995 1.83984 8.79443C1.4362 8.46891 1.09766 8.04248 0.824219 7.51514C0.557292 6.98779 0.423828 6.34326 0.423828 5.58154C0.423828 4.81982 0.557292 4.17855 0.824219 3.65771C1.09766 3.13037 1.4362 2.70394 1.83984 2.37842C2.25 2.04639 2.69271 1.80876 3.16797 1.66553C3.64323 1.51579 4.08594 1.44092 4.49609 1.44092H13.1387V3.97998H4.49609C4.01432 3.97998 3.63672 4.12646 3.36328 4.41943C3.09635 4.7124 2.96289 5.09977 2.96289 5.58154C2.96289 6.06982 3.09635 6.45719 3.36328 6.74365C3.63672 7.0236 4.01432 7.16357 4.49609 7.16357H10.3359H10.3555C10.6289 7.17008 10.9186 7.20915 11.2246 7.28076C11.5306 7.34587 11.8333 7.45003 12.1328 7.59326C12.4388 7.73649 12.7285 7.91878 13.002 8.14014C13.2754 8.35498 13.5163 8.6154 13.7246 8.92139C13.9395 9.22738 14.1087 9.57894 14.2324 9.97607C14.3561 10.3732 14.418 10.8224 14.418 11.3237ZM27.9824 15.4448H25.4434V8.44287C25.4434 8.11084 25.3587 7.86019 25.1895 7.69092C25.0202 7.51514 24.7663 7.42725 24.4277 7.42725H19.8477V4.88818H24.4277C24.6686 4.88818 24.9225 4.91748 25.1895 4.97607C25.4564 5.02816 25.7201 5.11279 25.9805 5.22998C26.2474 5.34717 26.5013 5.50016 26.7422 5.68896C26.9831 5.87126 27.1947 6.09587 27.377 6.36279C27.5592 6.62321 27.7057 6.92594 27.8164 7.271C27.9271 7.61605 27.9824 8.00667 27.9824 8.44287V15.4448ZM18.8223 15.4448H16.2832V0.425293H18.8223V15.4448ZM41.2051 11.9487C41.2051 12.3003 41.1432 12.6812 41.0195 13.0913C40.8958 13.495 40.694 13.8726 40.4141 14.2241C40.1406 14.5692 39.7793 14.8589 39.3301 15.0933C38.8874 15.3276 38.347 15.4448 37.709 15.4448H33.1289C32.7773 15.4448 32.3965 15.383 31.9863 15.2593C31.5827 15.1356 31.2051 14.937 30.8535 14.6636C30.5085 14.3836 30.2188 14.0223 29.9844 13.5796C29.75 13.1304 29.6328 12.5868 29.6328 11.9487C29.6328 11.5972 29.6947 11.2163 29.8184 10.8062C29.9421 10.396 30.1406 10.0184 30.4141 9.67334C30.694 9.32178 31.0553 9.02881 31.498 8.79443C31.9473 8.56006 32.4909 8.44287 33.1289 8.44287H37.709V10.8647H33.1289C32.7839 10.8647 32.5169 10.9722 32.3281 11.187C32.1393 11.3953 32.0449 11.6558 32.0449 11.9683C32.0449 12.3003 32.1523 12.5607 32.3672 12.7495C32.5885 12.9318 32.849 13.0229 33.1484 13.0229H37.709C38.054 13.0229 38.321 12.9188 38.5098 12.7104C38.6986 12.5021 38.793 12.2417 38.793 11.9292V8.38428C38.793 8.05225 38.6888 7.78857 38.4805 7.59326C38.2786 7.39795 38.0215 7.30029 37.709 7.30029H32.1328V4.88818H37.709C38.0605 4.88818 38.4382 4.95003 38.8418 5.07373C39.252 5.19743 39.6296 5.39925 39.9746 5.6792C40.3262 5.95264 40.6191 6.31396 40.8535 6.76318C41.0879 7.20589 41.2051 7.74626 41.2051 8.38428V11.9487ZM52.6113 7.42725H46.8984C46.5534 7.42725 46.293 7.51514 46.1172 7.69092C45.9414 7.86019 45.8535 8.11084 45.8535 8.44287V15.4448H43.3145V8.44287C43.3145 8.00667 43.3698 7.61605 43.4805 7.271C43.5911 6.92594 43.7376 6.62321 43.9199 6.36279C44.1087 6.09587 44.3236 5.87126 44.5645 5.68896C44.8053 5.50016 45.056 5.34717 45.3164 5.22998C45.5833 5.11279 45.8503 5.02816 46.1172 4.97607C46.3906 4.91748 46.6445 4.88818 46.8789 4.88818H52.6113V7.42725ZM66.6934 15.4448H63.0312L57.9141 10.5034C57.6276 10.243 57.4941 9.91748 57.5137 9.52686C57.5267 9.34456 57.5723 9.17529 57.6504 9.01904C57.735 8.85628 57.849 8.71956 57.9922 8.60889L62.6309 4.86865H66.6934L60.7168 9.68311L66.6934 15.4448ZM56.8691 15.4448H54.3301V0.425293H56.8691V15.4448ZM88.3633 11.3237C88.3633 11.825 88.2982 12.2775 88.168 12.6812C88.0443 13.0783 87.8783 13.4299 87.6699 13.7358C87.4616 14.0418 87.2174 14.3022 86.9375 14.5171C86.6576 14.7319 86.3678 14.9077 86.0684 15.0444C85.7689 15.1812 85.4629 15.2821 85.1504 15.3472C84.8444 15.4123 84.5547 15.4448 84.2812 15.4448H74.4863V12.9058H84.2812C84.7695 12.9058 85.1471 12.7625 85.4141 12.4761C85.6875 12.1896 85.8242 11.8055 85.8242 11.3237C85.8242 11.0894 85.7884 10.8745 85.7168 10.6792C85.6452 10.4839 85.541 10.3146 85.4043 10.1714C85.2741 10.0282 85.1113 9.91748 84.916 9.83936C84.7272 9.76123 84.5156 9.72217 84.2812 9.72217H78.4414C78.0312 9.72217 77.5885 9.65055 77.1133 9.50732C76.638 9.35758 76.1953 9.11995 75.7852 8.79443C75.3815 8.46891 75.043 8.04248 74.7695 7.51514C74.5026 6.98779 74.3691 6.34326 74.3691 5.58154C74.3691 4.81982 74.5026 4.17855 74.7695 3.65771C75.043 3.13037 75.3815 2.70394 75.7852 2.37842C76.1953 2.04639 76.638 1.80876 77.1133 1.66553C77.5885 1.51579 78.0312 1.44092 78.4414 1.44092H87.084V3.97998H78.4414C77.9596 3.97998 77.582 4.12646 77.3086 4.41943C77.0417 4.7124 76.9082 5.09977 76.9082 5.58154C76.9082 6.06982 77.0417 6.45719 77.3086 6.74365C77.582 7.0236 77.9596 7.16357 78.4414 7.16357H84.2812H84.3008C84.5742 7.17008 84.8639 7.20915 85.1699 7.28076C85.4759 7.34587 85.7786 7.45003 86.0781 7.59326C86.3841 7.73649 86.6738 7.91878 86.9473 8.14014C87.2207 8.35498 87.4616 8.6154 87.6699 8.92139C87.8848 9.22738 88.054 9.57894 88.1777 9.97607C88.3014 10.3732 88.3633 10.8224 88.3633 11.3237ZM106.771 15.4448H104.213V7.10498L99.7109 15.0249C99.6003 15.2267 99.444 15.3797 99.2422 15.4839C99.0469 15.5881 98.8353 15.6401 98.6074 15.6401C98.3861 15.6401 98.1777 15.5881 97.9824 15.4839C97.7936 15.3797 97.6439 15.2267 97.5332 15.0249L93.0117 7.10498V15.4448H90.4727V2.5249C90.4727 2.23193 90.5573 1.97152 90.7266 1.74365C90.9023 1.51579 91.1302 1.36279 91.4102 1.28467C91.5469 1.25212 91.6836 1.24235 91.8203 1.25537C91.957 1.26188 92.0872 1.29118 92.2109 1.34326C92.3411 1.38883 92.4583 1.45719 92.5625 1.54834C92.6667 1.63298 92.7546 1.73714 92.8262 1.86084L98.6074 11.9097L104.389 1.86084C104.538 1.61344 104.743 1.43766 105.004 1.3335C105.271 1.22933 105.548 1.21305 105.834 1.28467C106.107 1.36279 106.332 1.51579 106.508 1.74365C106.684 1.97152 106.771 2.23193 106.771 2.5249V15.4448ZM126.029 15.4448H123.471V7.10498L118.969 15.0249C118.858 15.2267 118.702 15.3797 118.5 15.4839C118.305 15.5881 118.093 15.6401 117.865 15.6401C117.644 15.6401 117.436 15.5881 117.24 15.4839C117.051 15.3797 116.902 15.2267 116.791 15.0249L112.27 7.10498V15.4448H109.73V2.5249C109.73 2.23193 109.815 1.97152 109.984 1.74365C110.16 1.51579 110.388 1.36279 110.668 1.28467C110.805 1.25212 110.941 1.24235 111.078 1.25537C111.215 1.26188 111.345 1.29118 111.469 1.34326C111.599 1.38883 111.716 1.45719 111.82 1.54834C111.924 1.63298 112.012 1.73714 112.084 1.86084L117.865 11.9097L123.646 1.86084C123.796 1.61344 124.001 1.43766 124.262 1.3335C124.529 1.22933 124.805 1.21305 125.092 1.28467C125.365 1.36279 125.59 1.51579 125.766 1.74365C125.941 1.97152 126.029 2.23193 126.029 2.5249V15.4448Z" fill="white"/>
</svg>
